<svg xmlns="http://www.w3.org/2000/svg" viewBox="159.88 584.91 1680.24 830.18"><path d="M236.791 1295.101h22.562v119.819H245.34v.172l-62.9-80.848v80.676h-22.562v-119.646h18.287l58.625 74.184v-74.357zM567.543 1414.92h-89.564v-119.646h89.564v21.878h-67.174v27.52h64.779v21.022h-64.779v27.009h67.174v22.217zM821.199 1315.784h-37.945v-20.511h98.452v20.511h-37.945v99.136h-22.562v-99.136zM1093.832 1414.92v-119.646h22.395v119.646h-22.395zM1335.699 1414.92v-119.474h85.973v21.706h-63.411v32.645h59.993v20.855h-59.993v44.268h-22.562zM1691.225 1344.671l31.795-49.398h27.175v1.023l-47.686 69.225v49.398h-22.567v-49.398l-45.974-69.225v-1.023h26.831l30.426 49.398z"/><g><path d="M1132.804 1107.646c-32.432 0-64.746-7.756-93.444-22.431-13.649-6.977-19.056-23.699-12.077-37.346s23.703-19.058 37.346-12.077c21.213 10.846 44.149 16.344 68.175 16.344 82.716 0 150.012-67.296 150.012-150.012s-67.296-150.012-150.012-150.012-150.012 67.296-150.012 150.012c0 113.325-92.197 205.522-205.522 205.522s-205.522-92.197-205.522-205.522 92.197-205.522 205.522-205.522c6.339 0 12.732.292 19.005.867 15.264 1.4 26.503 14.909 25.102 30.175-1.401 15.264-14.892 26.516-30.175 25.102-4.592-.422-9.28-.635-13.933-.635-82.717 0-150.012 67.296-150.012 150.012s67.295 150.012 150.012 150.012 150.012-67.296 150.012-150.012c0-113.325 92.197-205.522 205.522-205.522s205.522 92.197 205.522 205.522-92.197 205.523-205.521 205.523z"/><path d="M969.311 995.958c-3.156 0-6.319-.072-9.492-.217-54.841-2.509-105.421-26.225-142.424-66.777-37.002-40.552-55.998-93.086-53.489-147.925 2.51-54.84 26.225-105.42 66.777-142.423 40.554-37.003 93.101-55.99 147.927-53.488 76.825 3.516 144.686 49.061 177.101 118.864 6.457 13.903.42 30.407-13.482 36.862-13.905 6.461-30.407.42-36.862-13.482-23.67-50.97-73.212-84.226-129.295-86.792-40.046-1.824-78.375 12.032-107.974 39.042-29.599 27.009-46.909 63.927-48.741 103.954-1.831 40.029 12.034 78.374 39.043 107.974 27.009 29.6 63.928 46.91 103.955 48.741 60.204 2.772 115.936-30.535 142.08-84.799 6.652-13.81 23.242-19.614 37.05-12.958 13.81 6.652 19.612 23.24 12.958 37.049-34.433 71.471-106.385 116.375-185.132 116.375z"/></g><g><path d="M1824.291 1340.668h-6.481l-8.421-9.661h-5.244v9.661h-5.449v-28.94c4.582 0 9.164.04 13.749.04 6.811.04 10.404 4.582 10.404 9.577 0 3.963-1.819 7.97-7.308 9.083l8.75 9.866v.374zm-20.146-23.82v9.248h8.3c3.466 0 4.952-2.313 4.952-4.625s-1.526-4.622-4.952-4.622h-8.3z"/><path d="M1809.199 1357.12c-17.05 0-30.923-13.87-30.923-30.92 0-17.053 13.873-30.927 30.923-30.927 17.05 0 30.923 13.873 30.923 30.927 0 17.05-13.873 30.92-30.923 30.92zm0-58.405c-15.154 0-27.481 12.33-27.481 27.484 0 15.151 12.327 27.478 27.481 27.478 15.154 0 27.481-12.327 27.481-27.478 0-15.153-12.327-27.484-27.481-27.484z"/></g></svg>